<svg width="1368" height="528" viewBox="0 0 1368 528" fill="none" xmlns="http://www.w3.org/2000/svg">
<g opacity="0.04">
<mask id="mask0_8_35" style="mask-type:alpha" maskUnits="userSpaceOnUse" x="4" y="0" width="1360" height="520">
<rect x="4.06738" y="0.0380859" width="1359.93" height="519.962" rx="259.981" fill="#050505"/>
</mask>
<g mask="url(#mask0_8_35)">
<path d="M-5.93213 -53.458H-6.43213V-52.958V47.0347V47.5347H-5.93213H44.0629C71.9533 47.5347 94.5629 24.925 94.5629 -2.96533V-52.958V-53.458H94.0629H-5.93213Z" stroke="white" stroke-opacity="0.4"/>
<path d="M94.063 -53.458H93.563V-52.958V-2.96533C93.563 24.9251 116.173 47.5347 144.063 47.5347H194.058H194.558V47.0347V-52.958V-53.458H194.058H94.063Z" stroke="white" stroke-opacity="0.4"/>
<rect x="193.558" y="-53.458" width="100.995" height="100.993" stroke="white" stroke-opacity="0.4"/>
<rect x="293.553" y="-53.458" width="100.995" height="100.993" stroke="white" stroke-opacity="0.4"/>
<rect x="393.548" y="-53.458" width="100.995" height="100.993" stroke="white" stroke-opacity="0.4"/>
<rect x="493.543" y="-53.458" width="100.995" height="100.993" stroke="white" stroke-opacity="0.4"/>
<rect x="593.538" y="-53.458" width="100.995" height="100.993" stroke="white" stroke-opacity="0.4"/>
<rect x="693.533" y="-53.458" width="100.995" height="100.993" stroke="white" stroke-opacity="0.4"/>
<path d="M794.028 -53.458H793.528V-52.958V47.0347V47.5347H794.028H844.023C871.913 47.5347 894.523 24.925 894.523 -2.96533V-52.958V-53.458H894.023H794.028Z" stroke="white" stroke-opacity="0.4"/>
<path d="M894.023 -53.458H893.523V-52.958V-2.96533C893.523 24.9251 916.133 47.5347 944.023 47.5347H994.018H994.518V47.0347V-52.958V-53.458H994.018H894.023Z" stroke="white" stroke-opacity="0.4"/>
<rect x="993.518" y="-53.458" width="100.995" height="100.993" stroke="white" stroke-opacity="0.4"/>
<rect x="1093.51" y="-53.458" width="100.995" height="100.993" stroke="white" stroke-opacity="0.4"/>
<rect x="1193.51" y="-53.458" width="100.995" height="100.993" stroke="white" stroke-opacity="0.4"/>
<rect x="1293.5" y="-53.458" width="100.995" height="100.993" stroke="white" stroke-opacity="0.4"/>
<path d="M-5.93213 46.5347H-6.43213V47.0347V147.027V147.527H-5.93213H94.0629H94.5629V147.027V97.0347C94.5629 69.1443 71.9533 46.5347 44.0629 46.5347H-5.93213Z" stroke="white" stroke-opacity="0.4"/>
<path d="M194.558 47.0347V46.5347H194.058H144.063C116.173 46.5347 93.563 69.1443 93.563 97.0347V147.027V147.527H94.063H194.058H194.558V147.027V47.0347Z" stroke="white" stroke-opacity="0.4"/>
<rect x="193.558" y="46.5347" width="100.995" height="100.993" stroke="white" stroke-opacity="0.4"/>
<rect x="293.553" y="46.5347" width="100.995" height="100.993" stroke="white" stroke-opacity="0.4"/>
<rect x="393.548" y="46.5347" width="100.995" height="100.993" stroke="white" stroke-opacity="0.4"/>
<rect x="493.543" y="46.5347" width="100.995" height="100.993" stroke="white" stroke-opacity="0.4"/>
<rect x="593.538" y="46.5347" width="100.995" height="100.993" stroke="white" stroke-opacity="0.4"/>
<rect x="693.533" y="46.5347" width="100.995" height="100.993" stroke="white" stroke-opacity="0.4"/>
<path d="M794.028 46.5347H793.528V47.0347V147.027V147.527H794.028H894.023H894.523V147.027V97.0347C894.523 69.1443 871.914 46.5347 844.023 46.5347H794.028Z" stroke="white" stroke-opacity="0.4"/>
<path d="M994.518 47.0347V46.5347H994.018H944.023C916.133 46.5347 893.523 69.1443 893.523 97.0347V147.027V147.527H894.023H994.018H994.518V147.027V47.0347Z" stroke="white" stroke-opacity="0.4"/>
<rect x="993.518" y="46.5347" width="100.995" height="100.993" stroke="white" stroke-opacity="0.4"/>
<rect x="1093.51" y="46.5347" width="100.995" height="100.993" stroke="white" stroke-opacity="0.4"/>
<rect x="1193.51" y="46.5347" width="100.995" height="100.993" stroke="white" stroke-opacity="0.4"/>
<rect x="1293.5" y="46.5347" width="100.995" height="100.993" stroke="white" stroke-opacity="0.4"/>
<rect x="-6.43213" y="146.527" width="100.995" height="100.993" stroke="white" stroke-opacity="0.4"/>
<path d="M94.063 146.527H93.563V147.027V247.02V247.52H94.063H144.058C171.948 247.52 194.558 224.91 194.558 197.02V147.027V146.527H194.058H94.063Z" stroke="white" stroke-opacity="0.4"/>
<path d="M194.058 146.527H193.558V147.027V197.02C193.558 224.91 216.167 247.52 244.058 247.52H294.053H294.553V247.02V147.027V146.527H294.053H194.058Z" stroke="white" stroke-opacity="0.4"/>
<rect x="293.553" y="146.527" width="100.995" height="100.993" stroke="white" stroke-opacity="0.4"/>
<rect x="393.548" y="146.527" width="100.995" height="100.993" stroke="white" stroke-opacity="0.4"/>
<rect x="493.543" y="146.527" width="100.995" height="100.993" stroke="white" stroke-opacity="0.4"/>
<rect x="593.538" y="146.527" width="100.995" height="100.993" stroke="white" stroke-opacity="0.4"/>
<rect x="693.533" y="146.527" width="100.995" height="100.993" stroke="white" stroke-opacity="0.4"/>
<rect x="793.528" y="146.527" width="100.995" height="100.993" stroke="white" stroke-opacity="0.4"/>
<rect x="893.523" y="146.527" width="100.995" height="100.993" stroke="white" stroke-opacity="0.4"/>
<path d="M994.018 146.527H993.518V147.027V247.02V247.52H994.018H1044.01C1071.9 247.52 1094.51 224.91 1094.51 197.02V147.027V146.527H1094.01H994.018Z" stroke="white" stroke-opacity="0.4"/>
<path d="M1094.01 146.527H1093.51V147.027V197.02C1093.51 224.91 1116.12 247.52 1144.01 247.52H1194.01H1194.51V247.02V147.027V146.527H1194.01H1094.01Z" stroke="white" stroke-opacity="0.4"/>
<rect x="1193.51" y="146.527" width="100.995" height="100.993" stroke="white" stroke-opacity="0.4"/>
<rect x="1293.5" y="146.527" width="100.995" height="100.993" stroke="white" stroke-opacity="0.4"/>
<rect x="-6.43213" y="246.52" width="100.995" height="100.993" stroke="white" stroke-opacity="0.4"/>
<path d="M94.063 246.52H93.563V247.02V347.013V347.513H94.063H194.058H194.558V347.013V297.02C194.558 269.13 171.948 246.52 144.058 246.52H94.063Z" stroke="white" stroke-opacity="0.4"/>
<path d="M294.553 247.02V246.52H294.053H244.058C216.167 246.52 193.558 269.13 193.558 297.02V347.013V347.513H194.058H294.053H294.553V347.013V247.02Z" stroke="white" stroke-opacity="0.4"/>
<rect x="293.553" y="246.52" width="100.995" height="100.993" stroke="white" stroke-opacity="0.4"/>
<rect x="393.548" y="246.52" width="100.995" height="100.993" stroke="white" stroke-opacity="0.4"/>
<rect x="493.543" y="246.52" width="100.995" height="100.993" stroke="white" stroke-opacity="0.4"/>
<rect x="593.538" y="246.52" width="100.995" height="100.993" stroke="white" stroke-opacity="0.4"/>
<rect x="693.533" y="246.52" width="100.995" height="100.993" stroke="white" stroke-opacity="0.4"/>
<rect x="793.528" y="246.52" width="100.995" height="100.993" stroke="white" stroke-opacity="0.4"/>
<rect x="893.523" y="246.52" width="100.995" height="100.993" stroke="white" stroke-opacity="0.4"/>
<path d="M994.018 246.52H993.518V247.02V347.013V347.513H994.018H1094.01H1094.51V347.013V297.02C1094.51 269.13 1071.9 246.52 1044.01 246.52H994.018Z" stroke="white" stroke-opacity="0.4"/>
<path d="M1194.51 247.02V246.52H1194.01H1144.01C1116.12 246.52 1093.51 269.13 1093.51 297.02V347.013V347.513H1094.01H1194.01H1194.51V347.013V247.02Z" stroke="white" stroke-opacity="0.4"/>
<rect x="1193.51" y="246.52" width="100.995" height="100.993" stroke="white" stroke-opacity="0.4"/>
<rect x="1293.5" y="246.52" width="100.995" height="100.993" stroke="white" stroke-opacity="0.4"/>
<rect x="-6.43213" y="346.513" width="100.995" height="100.993" stroke="white" stroke-opacity="0.4"/>
<rect x="93.563" y="346.513" width="100.995" height="100.993" stroke="white" stroke-opacity="0.4"/>
<rect x="193.558" y="346.513" width="100.995" height="100.993" stroke="white" stroke-opacity="0.4"/>
<path d="M294.053 346.513H293.553V347.013V447.005V447.505H294.053H344.048C371.938 447.505 394.548 424.896 394.548 397.005V347.013V346.513H394.048H294.053Z" stroke="white" stroke-opacity="0.4"/>
<path d="M394.048 346.513H393.548V347.013V397.005C393.548 424.896 416.157 447.505 444.048 447.505H494.043H494.543V447.005V347.013V346.513H494.043H394.048Z" stroke="white" stroke-opacity="0.4"/>
<rect x="493.543" y="346.513" width="100.995" height="100.993" stroke="white" stroke-opacity="0.4"/>
<rect x="593.538" y="346.513" width="100.995" height="100.993" stroke="white" stroke-opacity="0.4"/>
<rect x="693.533" y="346.513" width="100.995" height="100.993" stroke="white" stroke-opacity="0.4"/>
<rect x="793.528" y="346.513" width="100.995" height="100.993" stroke="white" stroke-opacity="0.4"/>
<rect x="893.523" y="346.513" width="100.995" height="100.993" stroke="white" stroke-opacity="0.4"/>
<rect x="993.518" y="346.513" width="100.995" height="100.993" stroke="white" stroke-opacity="0.4"/>
<rect x="1093.51" y="346.513" width="100.995" height="100.993" stroke="white" stroke-opacity="0.4"/>
<path d="M1194.01 346.513H1193.51V347.013V447.005V447.505H1194.01H1244C1271.89 447.505 1294.5 424.896 1294.5 397.005V347.013V346.513H1294H1194.01Z" stroke="white" stroke-opacity="0.4"/>
<path d="M1294 346.513H1293.5V347.013V397.005C1293.5 424.896 1316.11 447.505 1344 447.505H1394H1394.5V447.005V347.013V346.513H1394H1294Z" stroke="white" stroke-opacity="0.4"/>
<path d="M-5.93213 446.505H-6.43213V447.005V546.998V547.498H-5.93213H44.0629C71.9533 547.498 94.5629 524.888 94.5629 496.998V447.005V446.505H94.0629H-5.93213Z" stroke="white" stroke-opacity="0.4"/>
<path d="M94.063 446.505H93.563V447.005V496.998C93.563 524.888 116.173 547.498 144.063 547.498H194.058H194.558V546.998V447.005V446.505H194.058H94.063Z" stroke="white" stroke-opacity="0.4"/>
<rect x="193.558" y="446.505" width="100.995" height="100.993" stroke="white" stroke-opacity="0.4"/>
<path d="M294.053 446.505H293.553V447.005V546.998V547.498H294.053H394.048H394.548V546.998V497.005C394.548 469.115 371.938 446.505 344.048 446.505H294.053Z" stroke="white" stroke-opacity="0.4"/>
<path d="M494.543 447.005V446.505H494.043H444.048C416.157 446.505 393.548 469.115 393.548 497.005V546.998V547.498H394.048H494.043H494.543V546.998V447.005Z" stroke="white" stroke-opacity="0.4"/>
<rect x="493.543" y="446.505" width="100.995" height="100.993" stroke="white" stroke-opacity="0.4"/>
<path d="M594.038 446.505H593.538V447.005V546.998V547.498H594.038H644.033C671.924 547.498 694.533 524.888 694.533 496.998V447.005V446.505H694.033H594.038Z" stroke="white" stroke-opacity="0.4"/>
<path d="M694.033 446.505H693.533V447.005V496.998C693.533 524.888 716.143 547.498 744.033 547.498H794.028H794.528V546.998V447.005V446.505H794.028H694.033Z" stroke="white" stroke-opacity="0.4"/>
<rect x="793.528" y="446.505" width="100.995" height="100.993" stroke="white" stroke-opacity="0.4"/>
<rect x="893.523" y="446.505" width="100.995" height="100.993" stroke="white" stroke-opacity="0.4"/>
<rect x="993.518" y="446.505" width="100.995" height="100.993" stroke="white" stroke-opacity="0.4"/>
<rect x="1093.51" y="446.505" width="100.995" height="100.993" stroke="white" stroke-opacity="0.4"/>
<path d="M1194.01 446.505H1193.51V447.005V546.998V547.498H1194.01H1294H1294.5V546.998V497.005C1294.5 469.115 1271.89 446.505 1244 446.505H1194.01Z" stroke="white" stroke-opacity="0.4"/>
<path d="M1394.5 447.005V446.505H1394H1344C1316.11 446.505 1293.5 469.115 1293.5 497.005V546.998V547.498H1294H1394H1394.5V546.998V447.005Z" stroke="white" stroke-opacity="0.4"/>
</g>
</g>
</svg>
